# xmcd
#
# Track frame offsets: 
#        150
#        11391
#        23616
#        34557
#        45432
#        55595
#        67014
#        77814
#        89505
#        102912
#        113291
#        124870
#        134742
#        146142
#        157730
#        167490
#        181140
#        192203
#        203885
#        217460
#        228560
#        240495
#        251717
#        264627
#        276215
#        289800
#        300563
#        310932
#        322595
#        333874
#
# Disc length: 4601 seconds
#
# Revision: 0
# Processed by: cddbd v1.5.2PL0 Copyright (c) Steve Scherf et al.
# Submitted via: ExactAudioCopyFreeDBPlugin 1.0
#
DISCID=9e11f71e
DTITLE=Little Junior Parker - Feelin' Good
DYEAR=2013
DGENRE=Blues
TTITLE0=Mary Jo
TTITLE1=Barefoot Rock
TTITLE2=Annie Get Your Yo Yo
TTITLE3=Seven Days
TTITLE4=How Long Can This Go On
TTITLE5=Peaches
TTITLE6=Fox Devil
TTITLE7=My Dolly Bee
TTITLE8=Feelin' Good
TTITLE9=I'll Forget About You
TTITLE10=I'm Holding On
TTITLE11=Blue Letter
TTITLE12=The Next Time
TTITLE13=That's Just Alright
TTITLE14=What Did I Do
TTITLE15=Pretty Baby
TTITLE16=Sometimes
TTITLE17=Stand By Me
TTITLE18=Fussin' and Fightin' Blues
TTITLE19=Wondering
TTITLE20=Driving Wheel
TTITLE21=Love My Baby
TTITLE22=I Wanna Ramble
TTITLE23=Sweet Home Chicago
TTITLE24=Bad Women Bad Whiskey
TTITLE25=Mystery Train
TTITLE26=Yonder's Wall
TTITLE27=Sittin' At The Bar
TTITLE28=That's My Baby 
TTITLE29=There Better Be No Feet
EXTD=
EXTT0=
EXTT1=
EXTT2=
EXTT3=
EXTT4=
EXTT5=
EXTT6=
EXTT7=
EXTT8=
EXTT9=
EXTT10=
EXTT11=
EXTT12=
EXTT13=
EXTT14=
EXTT15=
EXTT16=
EXTT17=
EXTT18=
EXTT19=
EXTT20=
EXTT21=
EXTT22=
EXTT23=
EXTT24=
EXTT25=
EXTT26=
EXTT27=
EXTT28=
EXTT29=
PLAYORDER=
